<?xml version="1.0" encoding="utf-8"?>
<!-- Generator: Adobe Illustrator 21.1.0, SVG Export Plug-In . SVG Version: 6.00 Build 0)  -->
<svg version="1.1" id="Lager_1" xmlns="http://www.w3.org/2000/svg" xmlns:xlink="http://www.w3.org/1999/xlink" x="0px" y="0px"
	 viewBox="0 0 841.9 221.5" style="enable-background:new 0 0 841.9 221.5;" xml:space="preserve">
<style type="text/css">
	.st0{fill:#FFFFFF;}
</style>
<path class="st0" d="M533,101.3c3.1-7.7,7.7-12.5,16.1-14.2c-6.5,25-22.5,46.3-28.8,71.5c4-0.4,8.5,1.3,11.7-2.1
	c3.3-3.7,5.6-13.1,7.7-17.7c5.6-11.7,10.2-24.2,15.6-36.1c0.2,12.1,4.2,25.9,18.3,17.3c6.9-4.2,12.7-10.6,16.1-17.9
	c3.3-7.1,5-14.8,11.7-19.8C600.6,94,596,114,611.8,118c14.2,3.7,30-11,40.2-19c1,6.5,2.1,14.8,7.9,19c6.3,4.6,15.9,2.5,22.9,0.8
	c11.1-2.9,20-9.4,28.1-17.3c6.7-6.7,16.5-14.6,18.3-24.6c-3.3,1.3-6.7,0-9.8,1c-4.2,1.3-5.6,5-7.9,8.3c-5.6,7.5-13.1,13.5-20.8,19
	c-6.7,4.8-15.6,8.6-23.1,2.3c-7.3-6.3-1.5-15.9,1.3-23.1c4.2-9.8,8.3-19.8,12.3-29.8c2.1-5,4-10,6-15c1.2-2.9,3.5-7.7,4.8-10.8
	c0.4-0.8,1-1.3,1.7-1.7c2.5-1,7.3-0.8,10-1.2c5-0.6,10-1,15-1.3c7.9-0.6,12.1-3.5,14-11.5c-7.7,0.8-15.4,1.2-23.1,2.3
	c-3.5,0.6-13.6,1.7-13.1,0.2c4-10.4,5.6-13.1,3.5-13.1c-3.1-0.2-8.1-0.6-10.2-0.8c-1.9,0-0.4,4.4-4.6,13.8c-1,2.1-9.8,1.7-16.3,1.9
	c-12.7,0.8-13.5-1.2-14.4,1.2c-3.3,8.8-2.7,10.6,2.9,9.8c12.7-1.5,13.6-1.5,22.3-1.2c0.6,0,0.8,0.8,0.4,1.2
	c-14.4,25.7-23.1,59.2-50.3,75.3c-4.2,2.5-12.1,6-16.9,2.9c-4.2-2.7-2.9-8.3-2.9-12.5c0-4.6-1.2-6.7,4.2-7.7
	c6.1-1.2,12.3,0.2,18.4-1.9c11-3.8,17.9-14,20.8-25c3.8-14.8-8.6-17.5-20.4-13.1c-6.3,2.3-11.5,6.3-16.1,11.1
	c-3.5,3.7-10.2,17.5-15.8,15.4c-5-1.9-0.4-11.3-2.3-15.9c-3.8-9-14.4-6.3-20.8-1.5c-1.3,1-3.5,5-4.8,2.3c-0.8-1.5,2.7-5.8,2.9-7.3
	c1.5-6.5-8.5-6.7-11.1-2.1c-6.1,10.8-6.5,26.1-21.7,28.6c-0.6-4.8-0.4-14.6-5.4-17.5c-5.2-3.1-16.1,1.7-21.1,3.3
	c0.6-2.3,3.8-9.2,3.5-11.1c-0.6-2.7-6.3-3.7-8.8-2.7c-3.8,1.5-4.6,8.1-6,11.5c-2.3,5.2-4.6,10.6-7.5,15.6
	c-1.9,3.1-18.8,21.7-19.4,12.5c0-0.6,1.5-3.1,1.9-4c0.6-1.9,0.8-4.4,1.2-6.5c0.6-5.2-0.4-9.6-5.4-12.1c-20-9.8-38.2,11-46.1,26.7
	c-4.8,9.6-6.3,19.6-14.4,27.1c-2.1,2.1-8.5,8.5-11.7,6c-3.8-2.9,4.2-15.2,5.8-18.4c13.6-30.7,27.1-61.5,40.5-92.2
	c-11.9-0.6-14.6,2.5-19.4,13.3c-7.1,15.9-14.2,31.9-21.3,47.8c-12.3-16.5-31.5,4.2-40.2,15.2c-5.4,6.7-8.6,14.6-13.6,21.3
	c-5.6,7.7-13.6,13.6-21.5,18.8c-5.2,3.5-15.4,11.1-20.8,4.8c-2.3-2.9-2.9-9.6-0.4-12.5c2.5-2.7,6.3-1.5,9.6-1.7
	c15.9-1.3,30.2-15.9,34.2-30.9c2.1-7.9-2.1-15-11-15.2c-9.2,0-19,8.8-25.2,15s-10.4,13.6-15.9,20.2c-2.7,3.1-16.7,12.1-19.8,5
	c-0.8-1.9,2.3-6.7,3.1-8.5c1.9-3.8,4.2-5.2,7.5-7.9c7.1-5.6,13.1-12.9,18.4-20.2c10.8-14.4,24-30.2,22.3-49.4
	c-1-10.6-9.6-11.3-16.7-5c-7.5,6.5-13.1,14.8-17.9,23.4c-11.1,20.2-20.4,41.5-27.1,63.6c-1.9-7.3-14-10.8-14.2-1.7
	c0,4.6,2.7,6.5-2.9,9.2c-6,2.9-14.4,3.3-20.6,1.3c2.1-10,11.7-16.9,18.4-24c9-9.4,18.3-19,25.9-29.6c3.8-5.4,6.9-11.3,9-17.5
	c2.1-6,6.1-17.9,0.8-22.7C268,5.8,231.7,103,226.7,114.5c-4-5-12.5-8.5-13.3,1.2c-0.4,6.5,7.3,9.8,3.3,15.2
	c-4,5.4-11.5,12.5-16.9,16.3c-7.3,5.4-10.8,0.2-7.5-6.5c3.5-7.5,7.1-15.2,10.2-22.9c3.3-8.3,6.5-13.5,1.2-21.1
	c-8.1-11.5-24.8-2.1-34,3.7c-11.9,8.3-16.7,20.2-25.2,32.1c-2.1,2.9-8.8,11.9-13.3,10.4c-3.8-1.3-4.8-17.9-5.4-21.3
	c-0.8-4.4-1.5-9-2.9-13.3c-1.9-6.1-4-6.3,2.7-11.3c7.3-5.4,14-11.5,20.6-17.9C157.9,67.8,170,56.8,183.1,47
	c14.2-11,28.8-21.5,46.1-26.7c19.2-5.8,39-10,59.2-10c-2.1-3.5-4.2-7.9-8.1-9.4c-4.6-1.7-11.9-0.6-17.1,0
	c-7.1,0.8-14.2,1.7-21.1,3.5c-40.5,10.8-69.4,34.8-97.8,61.7c-5.2,5-10.4,10-15.8,14.8c-3.1,2.7-7.7,10.8-12.3,9.8
	c-10.8-1.9,7.5-28.8,9.8-32.7c4-6.7,8.3-13.5,12.7-20.2c3.1-4.4,12.9-13.5,6-18.1c-5.8-3.7-9.4,2.7-15.6,1.5
	c-8.3-1.5-15.6-4.2-24-4.4c-32.5-1.2-58.8,8.6-76.7,36.1c8.5,0.6,12.5-1,18.4-6.7c5.6-5.4,12.1-9.8,19.2-13.1
	c12.9-5.8,27.1-6.9,40.9-4.8c3.8,0.6,17.1,1.3,19,5.6c1.9,4.2-5.6,13.3-7.5,16.7c-4,7.1-8.1,14.2-11.7,21.5
	c-3.5,6.9-5,11.7-13.5,11.7c-12.5,0-32.3,2.1-28.4,19.6c1.2,5.8,4.6,7.3,10.4,7.7c2.9,0.2,6.3-0.6,9.2,0.6c5.2,1.9,3.3,4.8,1,9.4
	c-6.1,12.5-14.8,24.8-25,34.4c-9.8,9.2-23.8,20.6-38,18.3c-15.4-2.3-11.9-17.3-3.5-25.6c3.3-3.1,11.9-6.1,11.1-11.3
	c-1.2-8.8-11.7-1.2-15.2,1.2C4.2,145.3-4,158.4,2.1,171.5c5.2,11,19,15,30.2,12.9c13.5-2.7,27.1-13.8,36.7-23.1
	c11.1-11,19.2-23.6,25.2-37.9c2.5-6,4.2-12.9,11.3-14.4c8.5-1.9,7.7,4.6,8.6,10.8c2.7,17.3,6.7,36.1,14,52.1
	c14.4,31.9,50.2,44.4,82.8,43.6c34.6-0.6,72.1-11.7,91.5-42.3c-10.2-0.6-15.6,2.1-22.5,9.2c-6.3,6.5-15.9,10.2-24.2,13.5
	c-19,7.9-39.6,11.5-60.1,8.5c-15.8-2.3-31.5-7.9-43-19c-6.1-5.8-27.1-31.3-12.1-36.3c1.5,5.4,3.1,13.1,8.3,16.1
	c4.8,2.9,12.1,1.2,17.3,0c4.6-1,7.7-3.1,11.9-5.2c5.8-2.9,4.8,1,9.8,3.3c8.3,4,19-7.9,24.2-12.3c-5.6,13.1-11,26.1-16.5,39.2
	c7.5,3.1,12.1-1.2,15.2-7.7c4.6-9.8,8.6-20.2,12.9-30.2c2.9-6.7,4.2-17.3,12.5-18.4c10.8-1.3,19.8-1,30.2-5.2
	c-9,20.6-18.1,41.1-26.9,61.7c11.3,2.9,14.2-5.6,17.9-14c6.7-15.2,14.4-30,20.9-45.3c2.5-5.8,2.9-2.7,9-2.7c3.7,0,9.4-4.2,12.7-1.7
	c3.7,2.7,1.3,9.8,2.5,13.6c1.3,4.2,4,7.1,8.3,8.6c11.1,4,21.9-2.3,30.4-9c2.3-1.9,4.6-3.8,7.1-5.4c3.1-2.1,2.5-2.3,5.2,0
	c4.4,3.7,5.8,8.5,12.3,9.6c4.8,0.8,9.6-1,13.8-3.3c4-2.1,8.5-7.7,13.5-6.9c6,1,5.8,6.5,13.1,4.2c6.3-1.9,12.1-6.5,16.5-11.5
	c2.9,5.2,6.9,11.3,13.5,11.9c7.1,0.6,15-5,20-9.2c12.1-10.4,15-27.3,33.4-28.8c-7.1,21.1-20.4,40-26.1,61.5
	c10.4-0.4,12.7-3.7,17.1-12.9c5.4-11.3,7.3-24.6,16.1-34.2c1.3,10,6.1,14,15.8,10C522.2,120.2,529,111.3,533,101.3z M635.6,56.6
	c3.8-1.9,9.8-1.9,8.6,3.8c-0.6,3.7-5.4,9.2-7.9,11.7c-5.8,6-12.3,5.4-19.6,2.9C622,67.9,627.5,60.8,635.6,56.6z M573.7,107.5
	c-1.9,2.3-7.3,2.5-8.1-1.2c-0.6-2.5,3.5-6.3,4.6-8.1c4.2-6.1,8.3-11.7,16.1-12.7C583.7,93.8,579.1,100.9,573.7,107.5z M581.8,64.2
	c3.8-2.3,8.3-0.4,8.3,4.4c0,5.2-6,6-9.8,7.9c-8.8,4.4-16.7,10.6-21.5,19.6C560.9,81.9,570.1,71.5,581.8,64.2z M338.7,90
	c3.5-2.7,10-4.2,9.8,1.9c0,3.5-4.8,6.9-7.1,9.2c-6.3,6.5-13.3,11.7-23.1,10.4C323.9,103.3,331.1,96.1,338.7,90z M323.8,39.3
	c-3.7,17.9-14,32.1-25,45.9C303.8,68.1,312.4,52.9,323.8,39.3z M281.9,39.8c-3.1,20-16.7,32.7-29,46.1
	C255.2,70.4,273.2,42.2,281.9,39.8z M80.7,103.1c-6.7,2.3-6-6.9-1.9-9.6c3.1-1.9,9.4-2.1,12.9-1.7c5,0.6,6.7,4,2.3,8.1
	C90.5,102.9,84.7,101.7,80.7,103.1z M178.5,144c-3.5,7.1-23.4,18.3-25.2,4.6c-1.3-11,8.3-25.4,15.4-32.9c3.7-4,25.4-24.2,29.6-10.8
	c0.8,2.7-1.7,4.2-3.1,6.3c-1.9,3.3-3.3,6.7-5,10C186.4,129,182.1,136.3,178.5,144z M376.2,131.3c-5,2.9-12.1,1.9-12.9-4.6
	c-0.8-5.8,4.8-12.9,7.5-17.5c5.4-9,13.6-26.1,25.6-27.9c13.1-1.7,7.1,15.6,4.2,21.7C395.4,114.8,387.2,124.8,376.2,131.3z
	 M451.5,118.6c-3.8,4.2-10.4,8.8-15.8,4.4c-4.4-3.7-2.3-9.6-0.6-14c4.2-10.6,9.2-22.1,19-28.8c0,3.8-0.2,7.7,0.8,11.3
	c1,4.8,4.4,7.3,6.1,11.3C463.6,109.8,455.6,114.2,451.5,118.6z M468.4,94c-3.1-2.7-5.6-6-5-10.2c0.4-2.1,2.1-6.5,4.8-6
	C473.6,78.7,467.5,90.6,468.4,94z M501.5,101.9c0.2-8.3,4.2-15.2,9.6-21.1c3.7-4,15-16.9,20-9.6c5.4,7.9-3.5,11.5-8.8,14
	C514.4,89.2,507.5,95.2,501.5,101.9z M524.2,96.5c-3.5,7.7-5.8,16.3-15.6,19.2C504.4,101.5,517.3,101.3,524.2,96.5z"/>
<path class="st0" d="M649.4,174.2c-7.9-4-13.8,0.8-17.3,8.1c-1.3,2.9-1.9,8.8-6.3,8.6c-5.6-0.2-5.6-8.8-7.9-12.1
	c-2.9-4.4-7.1-6.7-12.3-5.2c-6.1,1.7-7.5,4.2-5.2,9.2c5.4,12.1,5,22.5-2.9,33.6c3.5,0.4,11,2.5,13.6-0.6c2.7-3.1,0.8-12.3,0.8-15.6
	c3.1,2.9,7.7,17.1,13.1,14.2c5-2.7,2.9-11.9,8.8-14.4c1.3,4.2,0.6,6.3-0.8,10.4c-0.8,2.5-2.1,4,0.2,6c2.9,2.3,16.3,1.3,18.3-1.3
	c1.9-2.7-0.8-6.5-1.7-9.4c-1.2-3.8-2.1-7.7-2.1-11.7c0-4.2,1.2-7.9,2.9-11.7C652.3,178.4,653.9,176.5,649.4,174.2z"/>
<path class="st0" d="M548.6,207.8c-1.9-6.1-6.5-10.4-4.8-17.1c1.3-5,3.5-10-2.7-12.9c-6.5-3.1-18.6-1.2-25.6-1
	c-5.8,0.2-10.8-0.6-8.8,6.5c1.9,7.7,4.2,13.8,3.3,21.9c-0.4,3.3-4,10.6-0.4,12.7c1.5,1,6.5-0.6,8.1-0.4c2.9,0.2,5.6,1.7,8.3,0.2
	c4.4-2.5,1.7-3.5,0.2-6.5c-1.9-4.2-1.3-7.1,0-11.5c6.1,5.6,6.7,18.6,16.5,19.6c2.9,0.2,9.8-1.3,10.4-4.8
	C553.8,211.4,549.3,210.3,548.6,207.8z M526.5,193.2c-5.2-0.2-5.2-9.6,0-10.4C532.8,182,533.2,193.6,526.5,193.2z"/>
<path class="st0" d="M829.7,176.1c-5.4-3.3-35.7-7.5-34.8,1.5c0.4,3.3,3.3,6.5,4,9.8c1,4,0.8,8.3,0.4,12.3c-0.4,3.3-1,6-2.1,8.8
	c-1,2.5-3.7,3.7,0,6.3c4,2.9,15.6,0.4,20.4,0.4c6.7,0,12.7,0,17.9-5C847,199.7,841.8,183.4,829.7,176.1z M825.6,202.2
	c-1.9,5.6-9.8,6.1-11.3,0.8c-1.2-4.4,0.2-10.8,0-15.6c-0.2-5.6,1.7-10.8,8.1-5.6C828.5,186.8,828,195.7,825.6,202.2z"/>
<path class="st0" d="M578,176.5c-1.7,0.2-3.7,0.6-5.4,0.4c-1.3-0.2-4.2-1.9-5-1.9c-2.5,0-5,2.7-6.7,4.2c-5.2,4.6-8.5,9.8-8.8,16.9
	c-0.6,14.6,11,21.1,24,22.1c11.7,0.8,22.3-7.3,22.9-19.2C599.5,185.5,590.5,178.4,578,176.5z M577.6,210.7
	c-13.5-3.5-13.3-32.1-0.4-24.4C582,189.1,587.2,213.2,577.6,210.7z"/>
<path class="st0" d="M441.9,192.6c-3.7-0.6-11.3-1.5-8.5-6.5c2.9-4.8,9.2-0.2,12.3,1.7c4.2,2.7,8.8,3.7,7.3-3.7
	c-1-5-5.2-7.1-9.2-8.8c-4.4-1.9-8.8-3.7-13.6-2.1c-3.8,1.3-10.6,6.3-12.7,9.8c-6.5,10.8,6.1,18.6,14.2,22.1c2.7,1.2,8.6,2.5,4.4,6.3
	c-3.8,3.5-9-1.3-11.7-3.7c-3.5-3.3-7.3-6.5-7.5,0.8c-0.2,5.2,3.7,10,8.1,11.7c8.3,3.3,21.9,0.2,26.7-7.5
	C457.5,203.7,451.5,194.1,441.9,192.6z"/>
<path class="st0" d="M683.7,190.7c-2.5-0.6-12.7-1.5-10.6-6.7c2.3-5.6,10,1.7,12.1,2.9c11,6,8.3-10.2,0.4-13.5
	c-7.5-2.9-20.6-0.6-26.1,5.2c-9.6,10,1,18.6,9.8,23.4c3.1,1.5,9.4,2.7,6.3,6.9c-3.3,4.6-7.9-2.3-11-4.2c-2.7-1.9-11-6.7-11.5,0.2
	c-0.4,4,6.5,8.3,9.4,9.8c7.5,3.7,18.4,4.4,25.4-0.8C696.9,206.6,694.4,193.2,683.7,190.7z"/>
<path class="st0" d="M777.4,192c-3.7-5.6-5.6-12.5-10.4-17.1c-3.8-3.7-11.5-5-14.6,0.6c-1.3,2.5-2.3,6.5-2.7,9.4
	c-0.6,3.5-1.5,6.3-3.1,10.2c-1.7,4.4-5.2,13.1-7.9,19.2c4.2,0.2,5.6,0.4,11.5,1c4.2,0.4,5.6-2.9,3.3-6.3c-2.1-3.1-1.5-2.9,1.9-3.8
	c1.9-0.6,6.5-0.6,8.3,0c7.3,2.3-0.2,3.5,1.2,8.1c1.2,3.8,20.4,3.8,22.5,0.6c2.1-3.5-1.2-5.4-3.1-8.1
	C781.5,201.4,780.3,196.4,777.4,192z M762.4,195.7c-2.1,2.3-4.4,1.5-5.4-1.3c-0.8-2.5,2.1-5.2,2.9-7.3
	C760.9,190.5,766.5,191.4,762.4,195.7z"/>
<path class="st0" d="M727.5,182c9.4,8.6,9,6.5,16.3,4.4c-9-16.5-12.7-15.2-35.2-13.6c-6.1,0.4-8.8,4.8-11.3,10.2
	c-1.3,2.9-2.7,3.3,0.8,5.8c4.8,3.5,7.9-1.5,11.5-5c-0.2,7.3,3.8,15,1.2,22.1c-1.2,2.9-6.7,6.1-4.2,8.8c1.5,1.9,11.7,0.6,14.4,0.6
	c2.5,0,11.1,1.3,12.5-1.5c1.3-2.9-3.3-5.4-4.4-8.1C725.2,198.4,729,189.9,727.5,182z"/>
<path class="st0" d="M495.3,176.8c-6.1-0.2-12.1-0.2-18.3-0.2c-3.8,0-11.1-1.3-14.4,1.2c-6,4.2-4.8,16.7,3.7,11.5
	c2.3-1.5,4.8-4.2,7.1-1.3c1.2,1.5,1,8.6,1.2,10.8c0.4,4.4-0.2,8.1-3.5,11.1c-2.3,2.3-7.1,4-2.9,7.7c3.5,3.1,19,2.3,23.1-0.2
	c4.4-2.9,1.3-3.5-0.8-6c-3.3-3.7-4.6-7.5-4.6-12.5c0-2.7-0.2-10.4,2.5-11.5c3.7-1.7,5.4,3.3,8.3,3.8
	C505.9,193.6,502.8,177,495.3,176.8z"/>
<path class="st0" d="M555.1,167.4c3.8,2.7,19.4,6.1,17.9-1.9c-0.4-2.7-5.6-4.8-7.9-4.8C560.9,160.7,557.8,164.5,555.1,167.4z"/>
<path class="st0" d="M576.6,167.2c-0.8,6,11.9,6,14.2,1.9C594.9,161.9,578,155.5,576.6,167.2z"/>
</svg>
